<?xml version="1.0" standalone="no"?>
<!DOCTYPE svg PUBLIC "-//W3C//DTD SVG 20010904//EN"
 "http://www.w3.org/TR/2001/REC-SVG-20010904/DTD/svg10.dtd">
<svg version="1.0" xmlns="http://www.w3.org/2000/svg"
 width="600.000000pt" height="400.000000pt" viewBox="0 0 600.000000 400.000000"
 preserveAspectRatio="xMidYMid meet">

<g transform="translate(0.000000,400.000000) scale(0.100000,-0.100000)"
fill="#000000" stroke="none">
<path d="M3970 2850 l0 -920 325 0 325 0 0 920 0 920 -325 0 -325 0 0 -920z
m570 185 l0 -175 -250 0 -250 0 0 175 0 175 250 0 250 0 0 -175z m-370 -300
c27 -14 30 -21 30 -63 0 -41 -3 -49 -27 -59 -35 -17 -53 -16 -91 3 -28 14 -32
20 -32 57 0 35 5 45 28 59 35 21 56 22 92 3z m370 -335 l0 -110 -145 0 -145 0
0 110 0 110 145 0 145 0 0 -110z"/>
<path d="M2390 2610 l0 -680 758 2 757 3 3 678 2 677 -760 0 -760 0 0 -680z
m830 440 l0 -150 -140 0 -140 0 0 150 0 150 140 0 140 0 0 -150z m300 0 l0
-150 -140 0 -140 0 0 150 0 150 140 0 140 0 0 -150z m290 0 l0 -150 -140 0
-140 0 0 150 0 150 140 0 140 0 0 -150z m-590 -320 l0 -150 -140 0 -140 0 0
150 0 150 140 0 140 0 0 -150z m300 0 l0 -150 -140 0 -140 0 0 150 0 150 140
0 140 0 0 -150z m290 0 l0 -150 -140 0 -140 0 0 150 0 150 140 0 140 0 0 -150z
m10 -510 c0 -135 -3 -169 -14 -173 -8 -3 -17 -3 -20 0 -8 9 -8 348 1 356 3 4
12 2 20 -4 10 -9 13 -51 13 -179z"/>
<path d="M1470 2360 l0 -760 1575 0 1575 0 0 140 0 140 -1135 0 -1135 0 0 620
0 620 -440 0 -440 0 0 -760z"/>
<path d="M1230 2480 l0 -140 99 0 98 0 7 38 c8 47 8 190 0 220 -6 21 -11 22
-105 22 l-99 0 0 -140z"/>
<path d="M1470 1060 l0 -490 360 0 360 0 0 490 0 490 -360 0 -360 0 0 -490z
m220 305 l0 -75 -85 0 -85 0 0 75 0 75 85 0 85 0 0 -75z"/>
<path d="M2260 1060 l0 -490 590 0 590 0 0 490 0 490 -590 0 -590 0 0 -490z"/>
<path d="M3510 1060 l0 -490 555 0 555 0 0 490 0 490 -555 0 -555 0 0 -490z
m1020 -10 l0 -400 -210 0 -210 0 0 400 0 400 210 0 210 0 0 -400z"/>
<path d="M4157 1144 c-4 -4 -7 -49 -7 -101 0 -87 1 -93 20 -93 20 0 21 5 18
97 -3 89 -12 116 -31 97z"/>
<path d="M1220 1225 l0 -55 -80 0 -80 0 0 -105 0 -105 80 0 80 0 0 -50 0 -50
105 0 105 0 0 210 0 210 -105 0 -105 0 0 -55z"/>
<path d="M1840 420 l0 -110 1390 0 1390 0 0 110 0 110 -1390 0 -1390 0 0 -110z
m250 -20 l0 -61 -107 3 -108 3 -3 58 -3 57 111 0 110 0 0 -60z m2490 0 l0 -61
-102 3 -103 3 -3 58 -3 57 106 0 105 0 0 -60z"/>
</g>
</svg>
