<?xml version="1.0" standalone="yes"?>
<svg xmlns="http://www.w3.org/2000/svg" width="139" height="140">
<path style="fill:#ffffff; stroke:none;" d="M0 0L0 140L139 140L139 0L0 0z"/>
<path style="fill:#ef9ccd; stroke:none;" d="M63 12L63 13L67 14L67 13L63 12z"/>
<path style="fill:#ec0b42; stroke:none;" d="M64 12L64 13C93.0245 13.0192 112 33.4763 112 62C114.261 56.6111 112.791 49.4756 111.254 44C105.128 22.1734 85.3278 12.0023 64 12z"/>
<path style="fill:#ef9ccd; stroke:none;" d="M74 12L75 13L74 12M58 13L60 15L58 13z"/>
<path style="fill:#ec0b42; stroke:none;" d="M59 13L59 14L64 14L59 13z"/>
<path style="fill:#ffffff; stroke:none;" d="M67 13.4398C58.5792 14.3798 51 16.5028 44.0008 21.4398C7.58621 47.1255 32.5587 103.387 75 98.8264C127.778 93.1556 119.554 7.57344 67 13.4398z"/>
<path style="fill:#ef9ccd; stroke:none;" d="M72.6667 13.3333L73.3333 13.6667L72.6667 13.3333M79 13L80 14L79 13z"/>
<path style="fill:#ec0b42; stroke:none;" d="M40 24L59 15C52.5886 12.7768 43.8876 19.2962 40 24z"/>
<path style="fill:#ef9ccd; stroke:none;" d="M83 14L84 15L83 14M52 15L53 16L52 15M55 15L56 16L55 15M82 15L83 16L82 15M68 16L69 17L68 16M65 17L66 18L65 17z"/>
<path style="fill:#ec0b42; stroke:none;" d="M66.1883 17.7469C60.5634 20.1053 60.1648 29.6561 55.8951 33.892C50.169 39.5727 43.9661 37.7884 37.0154 39.9429C34.1153 40.8418 31.4933 42.6599 31.5725 46.0154C31.7598 53.949 43.2829 58.6652 45.2245 67C46.776 73.6596 38.9031 84.7558 47.0586 88.9568C54.0245 92.545 62.255 81.6506 70 82.1088C76.9554 82.5202 84.1179 92.3204 90.9414 88.8056C98.8578 84.7277 91.7198 75.2694 92.341 69C93.1371 60.9659 98.7808 57.2451 103.721 51.7145C105.779 49.4104 107.228 46.2203 105.642 43.2276C102.116 36.5752 88.8204 39.7473 83.0154 34.7755C77.8833 30.3798 75.3844 13.8911 66.1883 17.7469z"/>
<path style="fill:#ef9ccd; stroke:none;" d="M87 17L88 18L87 17M46 18L47 19L46 18z"/>
<path style="fill:#ffffff; stroke:none;" d="M67.1296 19.0718C61.9401 21.7254 61.6271 31.5687 57.7863 35.9846C54.2733 40.0235 30.2573 47.0469 41.1481 53.8356C45.8402 56.7604 51.4046 56.8146 55.9568 60.5293C60.8887 64.5539 63.3619 82.966 70.8951 80.2137C76.3357 78.226 75.8908 67.4816 79.5324 63.0934C84.8341 56.7047 93.2294 58.108 98.4715 53.2585C100.938 50.9768 100.491 46.8432 97.7176 45.0239C93.5698 42.3027 88.2385 42.9694 84.0147 39.6065C79.359 35.8998 73.6021 15.762 67.1296 19.0718z"/>
<path style="fill:#ef9ccd; stroke:none;" d="M73 18L74 19L73 18M89 18L90 19L89 18M63 19L64 20L63 19M65 19L66 20L65 19M74 19L75 20L74 19M93 19L94 20L93 19M43 20L44 21L43 20M45 20L46 21L45 20M64 20L65 21L64 20M73 20L74 21L73 20M74.3333 22.6667L74.6667 23.3333L74.3333 22.6667M95 22L96 23L95 22M41 23L42 24L41 23M61 23L62 24L61 23M63 23L64 24L63 23M98 23L99 24L98 23z"/>
<path style="fill:#ec0b42; stroke:none;" d="M39 24L40 25L39 24z"/>
<path style="fill:#ef9ccd; stroke:none;" d="M76 24L77 25L76 24M99 24L100 25L99 24z"/>
<path style="fill:#ec0b42; stroke:none;" d="M38 25L39 26L38 25z"/>
<path style="fill:#ef9ccd; stroke:none;" d="M100 25L101 26L100 25z"/>
<path style="fill:#ec0b42; stroke:none;" d="M37 26L38 27L37 26z"/>
<path style="fill:#ef9ccd; stroke:none;" d="M101 26L102 27L101 26z"/>
<path style="fill:#ec0b42; stroke:none;" d="M36 27C30.4756 34.1881 26.4015 41.7913 26 51L27 51L36 27z"/>
<path style="fill:#ef9ccd; stroke:none;" d="M62 27L63 28L62 27M75 27L76 28L75 27M36 28L37 29L36 28M77 28L78 29L77 28M102 29L103 30L102 29M33 30L34 31L33 30M61 30L62 31L61 30M78 30L79 31L78 30M105 31L106 32L105 31M33 32L34 33L33 32M60 32L61 33L60 32M77 32L78 33L77 32M31 33L32 34L31 33M59 34L60 35L59 34M106 35L107 36L106 35M53 36L54 37L53 36M84 36L85 37L84 36M51 37L52 38L51 37M86 37L87 38L86 37M107 37L108 38L107 37M28 39L29 40L28 39M38 39L39 40L38 39M99 39L100 40L99 39M108 39L109 40L108 39M34 40L35 41L34 40M103 40L104 41L103 40M59 41L60 42L59 41z"/>
<path style="fill:#ec0b42; stroke:none;" d="M60.2276 42.0278C55.9689 44.6176 55.1141 54.0178 59.4329 56.9722C62.7084 59.213 75.2883 59.1648 78.581 56.9722C82.9272 54.0783 82.6399 44.93 78.4313 42.0278C75.1464 39.7625 63.5841 39.9866 60.2276 42.0278z"/>
<path style="fill:#ef9ccd; stroke:none;" d="M110 41L111 42L110 41M28 42L29 43L28 42M79 42L80 43L79 42M46 43L47 44L46 43M91 43L92 44L91 43M40 44L41 45L40 44M57 44L58 45L57 44M106 44L107 45L106 44M111 44L112 45L111 44M26 45L27 46L26 45M110 45L111 46L110 45M27 46L28 47L27 46M31 47L32 48L31 47M56.3333 47.6667L56.6667 48.3333L56.3333 47.6667M81 47L82 48L81 47M106 47L107 48L106 47M37.3333 48.6667L37.6667 49.3333L37.3333 48.6667M100 48L101 49L100 48M112 49L113 50L112 49M25 50L27 53L25 50M56.3333 50.6667L56.6667 51.3333L56.3333 50.6667M100 50L101 51L100 50M111 50L112 51L111 50z"/>
<path style="fill:#ec0b42; stroke:none;" d="M25 52C25.0109 68.5155 31.6056 89.2307 49 95L49 94C38.9515 88.1916 30.7812 78.2818 27.7569 67C26.4549 62.1429 26.9185 56.5618 25 52z"/>
<path style="fill:#ef9ccd; stroke:none;" d="M38 52L39 53L38 52M81 52L82 53L81 52M39 53L40 54L39 53M101 53L102 54L101 53M41 54L42 55L41 54M46 55L47 56L46 55M80 55L81 56L80 55M91 55L92 56L91 55M88 56L89 57L88 56M26.3333 59.6667L26.6667 60.3333L26.3333 59.6667M56 60L57 61L56 60M81 60L82 61L81 60M25.3333 61.6667L25.6667 62.3333L25.3333 61.6667M43 61L44 62L43 61M80 61L81 62L80 61M111 61L113 64L111 61M79 62L80 63L79 62M59 63L60 64L59 63M93 63L94 64L93 63z"/>
<path style="fill:#ec0b42; stroke:none;" d="M111 63C108.126 95.7111 74.3458 101.916 49 95L49 96C68.5449 103.529 91.0361 100.774 104.239 83C107.927 78.0355 113.455 69.3059 111 63z"/>
<path style="fill:#ef9ccd; stroke:none;" d="M27 66L28 67L27 66M26 67L27 68L26 67M45.3333 67.6667L45.6667 68.3333L45.3333 67.6667M92 67L93 68L92 67M110 67L111 68L110 67M62 69L63 70L62 69M27 70L28 71L27 70M109 70L110 71L109 70M45.3333 71.6667L45.6667 72.3333L45.3333 71.6667M29 72L30 73L29 72M28 73L29 74L28 73M92 73L93 74L92 73M109 73L110 74L109 73M29 75L30 76L29 75M63.3333 75.6667L63.6667 76.3333L63.3333 75.6667M30 77L31 78L30 77M32 78L33 79L32 78M64 78L65 79L64 78M43 79L44 80L43 79M106 79L107 80L106 79M66 80L67 81L66 80M71 80L72 81L71 80M104 80L105 81L104 80M34 81L35 82L34 81M64 82L65 83L64 82M73 82L74 83L73 82M104 82L105 83L104 82M34 83L35 84L34 83M61 83L62 84L61 83M76 83L77 84L76 83M101 84L102 85L101 84M100 85L101 86L100 85M99 86L100 87L99 86M44 87L45 88L44 87M93 87L94 88L93 87M98 87L99 88L98 87M45 88L46 89L45 88M54 88L55 89L54 88M83 88L84 89L83 88M97 88L98 89L97 88M52 89L53 90L52 89M85 89L86 90L85 89M90 89L91 90L90 89M42 91L43 92L42 91M44 91L45 92L44 91M94 92L95 93L94 92M47 93L48 94L47 93M90 93L91 94L90 93M51 95L52 96L51 95M89 95L90 96L89 95M53 96L54 97L53 96M84 96L85 97L84 96M87 96L88 97L87 96M56 97L57 98L56 97M81 97L82 98L81 97M60 98L61 99L60 98M77 98L78 99L77 98M82 98L83 99L82 98M59 99L60 100L59 99M78 99L79 100L78 99M65 100L65 101L73 101L65 100z"/>
<path style="fill:#616161; stroke:none;" d="M54 108L55 109L54 108z"/>
<path style="fill:#ec0b42; stroke:none;" d="M41 109L34 125L35 125C38.0943 120.498 40.7065 120.019 46 120L48 126L49 126L41 109z"/>
<path style="fill:#111111; stroke:none;" d="M54 109L52 113L52 114L54 125L55 125L57 114L57 113L54 109z"/>
<path style="fill:#ef9ccd; stroke:none;" d="M40 110L41 111L40 110M39 112L40 113L39 112M41 112L40 114L41 112z"/>
<path style="fill:#ffffff; stroke:none;" d="M41 113L39 119L44 119L41 113z"/>
<path style="fill:#ef9ccd; stroke:none;" d="M43 113L44 114L43 113z"/>
<path style="fill:#616161; stroke:none;" d="M51 113L52 114L51 113z"/>
<path style="fill:#ef9ccd; stroke:none;" d="M57 113L58 114L57 113z"/>
<path style="fill:#111111; stroke:none;" d="M60 113L60 125L61 125L60 113M63.6667 113.333L64.3333 113.667L63.6667 113.333z"/>
<path style="fill:#616161; stroke:none;" d="M70 113L71 114L70 113z"/>
<path style="fill:#111111; stroke:none;" d="M71 125C68.3439 119.589 68.6546 115.804 75 114C67.1354 111.3 65.9609 120.799 71 125z"/>
<path style="fill:#616161; stroke:none;" d="M75.3333 113.667L75.6667 114.333L75.3333 113.667M79 113L80 114L79 113z"/>
<path style="fill:#111111; stroke:none;" d="M84 113L84 125L85 125L84 113z"/>
<path style="fill:#ef9ccd; stroke:none;" d="M87 113L88 114L87 113z"/>
<path style="fill:#111111; stroke:none;" d="M88 113L88 114L92 114L88 113M102 120L102 119L99 114L104 115C98.9724 111.362 97.1845 117.038 102 120z"/>
<path style="fill:#ef9ccd; stroke:none;" d="M38 114L39 115L38 114M42 114L43 115L42 114z"/>
<path style="fill:#616161; stroke:none;" d="M53 114L54 115L53 114z"/>
<path style="fill:#ef9ccd; stroke:none;" d="M61 114L62 115L61 114z"/>
<path style="fill:#616161; stroke:none;" d="M62 114L63 115L62 114z"/>
<path style="fill:#ef9ccd; stroke:none;" d="M71 114L72 115L71 114z"/>
<path style="fill:#ffffff; stroke:none;" d="M72.1042 114.851C66.1369 116.709 68.9495 126.071 74.8557 124.149C80.1256 122.434 77.8648 113.057 72.1042 114.851z"/>
<path style="fill:#111111; stroke:none;" d="M76 114L77 115L76 114z"/>
<path style="fill:#ef9ccd; stroke:none;" d="M78 114L79 115L78 114z"/>
<path style="fill:#111111; stroke:none;" d="M79 114L77 116L80 125L79 114z"/>
<path style="fill:#616161; stroke:none;" d="M86.6667 114.333L87.3333 114.667L86.6667 114.333z"/>
<path style="fill:#111111; stroke:none;" d="M92 114L93 119L94 119L92 114z"/>
<path style="fill:#ef9ccd; stroke:none;" d="M93 114L94 115L93 114z"/>
<path style="fill:#616161; stroke:none;" d="M99 114L100 115L99 114z"/>
<path style="fill:#ef9ccd; stroke:none;" d="M39 115L40 116L39 115M44 115L45 116L44 115M86 115L87 116L86 115M37 116L38 117L37 116M43 116L44 117L43 116M67 116L68 117L67 116M45 117L46 118L45 117z"/>
<path style="fill:#616161; stroke:none;" d="M68 117L69 118L68 117z"/>
<path style="fill:#ef9ccd; stroke:none;" d="M94 117L95 118L94 117z"/>
<path style="fill:#616161; stroke:none;" d="M99 117L100 118L99 117z"/>
<path style="fill:#ef9ccd; stroke:none;" d="M38 118L39 119L38 118M78.3333 118.667L78.6667 119.333L78.3333 118.667z"/>
<path style="fill:#616161; stroke:none;" d="M94 118L93 125L95 125L94 118M100 119L101 120L100 119M102.333 119.667L102.667 120.333L102.333 119.667z"/>
<path style="fill:#ef9ccd; stroke:none;" d="M45 120L46 121L45 120z"/>
<path style="fill:#616161; stroke:none;" d="M78 120L79 121L78 120z"/>
<path style="fill:#111111; stroke:none;" d="M103.333 120.667L103.667 121.333L103.333 120.667z"/>
<path style="fill:#616161; stroke:none;" d="M103.667 122.333L104.333 122.667L103.667 122.333M68 123L69 124L68 123z"/>
<path style="fill:#111111; stroke:none;" d="M103 123L98 124L98 125C100.121 125.662 104.166 126.136 103 123z"/>
<path style="fill:#616161; stroke:none;" d="M69 124L70 125L69 124M71.3333 124.667L71.6667 125.333L71.3333 124.667z"/>
<path style="fill:#111111; stroke:none;" d="M72 125L72 126L77 125L72 125z"/>
<path style="fill:#ef9ccd; stroke:none;" d="M78 124L79 125L78 124M99 124L100 125L99 124M33.6667 125.333L34.3333 125.667L33.6667 125.333z"/>
<path style="fill:#616161; stroke:none;" d="M54 125L55 126L54 125M60 125L61 126L60 125z"/>
<path style="fill:#ef9ccd; stroke:none;" d="M75 125L76 126L75 125z"/>
<path style="fill:#616161; stroke:none;" d="M79 125L80 126L79 125M84 125L85 126L84 125z"/>
<path style="fill:#ef9ccd; stroke:none;" d="M93 125L94 126L93 125z"/>
<path style="fill:#616161; stroke:none;" d="M102 125L103 126L102 125z"/>
</svg>
